<mxfile host="app.diagrams.net" modified="2024-05-27T07:42:23.021Z" agent="Mozilla/5.0 (Windows NT 10.0; Win64; x64) AppleWebKit/537.36 (KHTML, like Gecko) Chrome/124.0.0.0 Safari/537.36" version="24.4.4" etag="qHgwEGtPOqdHsbRwPQxw" type="github">
  <diagram name="Страница — 1" id="2U-SUAPNDnkASxawQk-r">
    <mxGraphModel>
      <root>
        <mxCell id="0" />
        <mxCell id="1" parent="0" />
      </root>
    </mxGraphModel>
  </diagram>
</mxfile>
